<svg width="24" height="24" viewBox="0 0 24 24" fill="none" xmlns="http://www.w3.org/2000/svg">
<path d="M3.11774 12.467C3.04045 12.3233 3 12.1627 3 11.9995C3 11.8363 3.04045 11.6757 3.11774 11.532C5.00974 8.033 8.50474 5 11.9997 5C15.4947 5 18.9897 8.033 20.8817 11.533C20.959 11.6767 20.9995 11.8373 20.9995 12.0005C20.9995 12.1637 20.959 12.3243 20.8817 12.468C18.9897 15.967 15.4947 19 11.9997 19C8.50474 19 5.00974 15.967 3.11774 12.467V12.467Z" stroke="white" stroke-width="1.5" stroke-linecap="round" stroke-linejoin="round"/>
<path d="M14.0462 9.80417C14.3375 10.0797 14.5706 10.4109 14.7317 10.778C14.8929 11.1452 14.9788 11.541 14.9844 11.9419C14.9899 12.3429 14.9151 12.7409 14.7642 13.1124C14.6133 13.4839 14.3895 13.8214 14.106 14.105C13.8224 14.3885 13.4849 14.6123 13.1134 14.7632C12.7419 14.9141 12.3439 14.9889 11.9429 14.9834C11.542 14.9778 11.1462 14.8919 10.779 14.7307C10.4119 14.5696 10.0807 14.3365 9.80517 14.0452C9.27525 13.4765 8.98675 12.7243 9.00047 11.9471C9.01418 11.1699 9.32903 10.4283 9.87868 9.87868C10.4283 9.32903 11.1699 9.01418 11.9471 9.00047C12.7243 8.98675 13.4765 9.27525 14.0452 9.80517" stroke="white" stroke-width="1.429" stroke-linecap="round" stroke-linejoin="round"/>
</svg>
